<svg xmlns="http://www.w3.org/2000/svg" width="1600" height="520" viewBox="0 0 1600 520" role="img" aria-labelledby="title desc">
  <title id="title">SecAtlas Penetration Testing Learning Library</title>
  <desc id="desc">Repository cover for Chinese network security and penetration testing learning materials.</desc>
  <defs>
    <linearGradient id="background" x1="0" y1="0" x2="1" y2="1">
      <stop offset="0" stop-color="#050B14"/>
      <stop offset="0.55" stop-color="#091827"/>
      <stop offset="1" stop-color="#0D2330"/>
    </linearGradient>
    <radialGradient id="cyanGlow" cx="0" cy="0" r="1" gradientTransform="translate(365 250) rotate(90) scale(255)">
      <stop offset="0" stop-color="#35D0E7" stop-opacity=".2"/>
      <stop offset="1" stop-color="#35D0E7" stop-opacity="0"/>
    </radialGradient>
    <radialGradient id="goldGlow" cx="0" cy="0" r="1" gradientTransform="translate(1430 70) rotate(128) scale(310)">
      <stop offset="0" stop-color="#D7B468" stop-opacity=".16"/>
      <stop offset="1" stop-color="#D7B468" stop-opacity="0"/>
    </radialGradient>
    <pattern id="grid" width="40" height="40" patternUnits="userSpaceOnUse">
      <path d="M40 0H0V40" fill="none" stroke="#A8C6D1" stroke-opacity=".055"/>
    </pattern>
    <filter id="softGlow" x="-60%" y="-60%" width="220%" height="220%">
      <feGaussianBlur stdDeviation="8"/>
    </filter>
    <clipPath id="markClip">
      <path d="M350 91 476 164v146L350 383 224 310V164z"/>
    </clipPath>
  </defs>

  <rect width="1600" height="520" rx="24" fill="url(#background)"/>
  <rect width="1600" height="520" rx="24" fill="url(#grid)"/>
  <rect width="1600" height="520" rx="24" fill="url(#cyanGlow)"/>
  <rect width="1600" height="520" rx="24" fill="url(#goldGlow)"/>

  <g opacity=".22" fill="none" stroke="#67DCEC">
    <path d="M-90 410C80 330 125 448 278 381s231-41 347 10 213 4 327-67 244-53 360 4 217 46 385-65" stroke-width="1.2"/>
    <path d="M-73 440C69 363 142 476 295 409s223-37 336 11 211 7 329-67 242-49 358 6 216 42 366-71" stroke-opacity=".45"/>
    <path d="M1054 52c88 34 143 13 214-16 71-30 159-25 257 36" stroke="#D7B468" stroke-opacity=".45"/>
  </g>

  <g>
    <circle cx="350" cy="237" r="156" fill="#35D0E7" opacity=".08" filter="url(#softGlow)"/>
    <path d="M350 91 476 164v146L350 383 224 310V164z" fill="#071522" stroke="#7BE8F4" stroke-opacity=".8" stroke-width="2"/>
    <g clip-path="url(#markClip)" opacity=".42" fill="none" stroke="#64D8E8">
      <ellipse cx="350" cy="237" rx="91" ry="146"/>
      <ellipse cx="350" cy="237" rx="42" ry="146"/>
      <path d="M205 237h290M226 175c76 41 172 41 248 0M226 299c76-41 172-41 248 0"/>
    </g>
    <path d="M350 128c-51 25-86 44-86 94 0 71 42 113 86 135 44-22 86-64 86-135 0-50-35-69-86-94z" fill="#081A28" fill-opacity=".78" stroke="#D7B468" stroke-width="2.4"/>
    <path d="m350 167 43 24v49c0 36-18 61-43 78-25-17-43-42-43-78v-49z" fill="none" stroke="#7BE8F4" stroke-width="2"/>
    <g stroke="#D7B468" stroke-width="2" fill="#091827">
      <path d="M350 204 323 232l27 34 27-34z"/>
      <circle cx="350" cy="204" r="7" fill="#D7B468"/>
      <circle cx="323" cy="232" r="6"/>
      <circle cx="377" cy="232" r="6"/>
      <circle cx="350" cy="266" r="7" fill="#35D0E7" stroke="#35D0E7"/>
    </g>
  </g>

  <g font-family="-apple-system, BlinkMacSystemFont, 'Segoe UI', sans-serif">
    <text x="568" y="181" fill="#F4F8FA" font-size="76" font-weight="750" letter-spacing="7">SECATLAS</text>
    <rect x="572" y="205" width="88" height="3" rx="1.5" fill="#D7B468"/>
    <text x="680" y="218" fill="#D7B468" font-size="17" font-weight="650" letter-spacing="4">PENETRATION TESTING LEARNING LIBRARY</text>
    <text x="568" y="284" fill="#C9DAE1" font-size="27" font-weight="500" letter-spacing="2">NETWORK SECURITY LEARNING MATERIALS</text>
    <text x="568" y="324" fill="#7896A3" font-size="20" letter-spacing="1.2">FROM FUNDAMENTALS TO PRACTICAL ANALYSIS</text>

    <g transform="translate(568 372)">
      <g>
        <rect width="190" height="66" rx="8" fill="#102635" stroke="#294858"/>
        <text x="18" y="28" fill="#F4F8FA" font-size="18" font-weight="700">SYSTEMATIC</text>
        <text x="18" y="49" fill="#7896A3" font-size="13" letter-spacing="1.4">LEARNING PATHS</text>
      </g>
      <g transform="translate(208)">
        <rect width="204" height="66" rx="8" fill="#102635" stroke="#294858"/>
        <circle cx="22" cy="24" r="5" fill="#35D0E7"/>
        <text x="36" y="29" fill="#F4F8FA" font-size="16" font-weight="700">PRINCIPLES</text>
        <text x="18" y="49" fill="#7896A3" font-size="13" letter-spacing="1.2">ROOT CAUSES FIRST</text>
      </g>
      <g transform="translate(430)">
        <rect width="190" height="66" rx="8" fill="#102635" stroke="#294858"/>
        <circle cx="22" cy="24" r="5" fill="#D7B468"/>
        <text x="36" y="29" fill="#F4F8FA" font-size="16" font-weight="700">PRACTICE</text>
        <text x="18" y="49" fill="#7896A3" font-size="13" letter-spacing="1.2">CASES &amp; METHODS</text>
      </g>
    </g>
  </g>

  <path d="M24 74V36a12 12 0 0 1 12-12h38M1526 24h38a12 12 0 0 1 12 12v38M1576 446v38a12 12 0 0 1-12 12h-38M74 496H36a12 12 0 0 1-12-12v-38" fill="none" stroke="#D7B468" stroke-opacity=".7" stroke-width="2"/>
</svg>
